<?xml version="1.0" encoding="utf-8"?>
<!-- Generator: Adobe Illustrator 16.0.0, SVG Export Plug-In . SVG Version: 6.00 Build 0)  -->
<!DOCTYPE svg PUBLIC "-//W3C//DTD SVG 1.1//EN" "http://www.w3.org/Graphics/SVG/1.1/DTD/svg11.dtd">
<svg version="1.1" id="Calque_1" xmlns="http://www.w3.org/2000/svg" xmlns:xlink="http://www.w3.org/1999/xlink" x="0px" y="0px"
	 width="250px" height="203.93px" viewBox="0 0 250 203.93" enable-background="new 0 0 250 203.93" xml:space="preserve">
<g>
	<path fill="#FFFFFF" d="M14.671,191.766h220.644V29.991H14.671V191.766z M238.508,198.163H11.472c-1.764,0-3.198-1.43-3.198-3.199
		V26.792c0-1.77,1.435-3.198,3.198-3.198h227.036c1.769,0,3.198,1.428,3.198,3.198v168.171
		C241.706,196.733,240.276,198.163,238.508,198.163"/>
	<path fill="#FFFFFF" d="M14.979,191.459h220.027V30.297H14.979V191.459z M235.62,192.074H14.364V29.683H235.62V192.074z
		 M11.472,23.899c-1.593,0-2.892,1.297-2.892,2.892v168.171c0,1.597,1.298,2.894,2.892,2.894h227.036
		c1.594,0,2.894-1.297,2.894-2.894V26.791c0-1.595-1.3-2.892-2.894-2.892H11.472z M238.508,198.469H11.472
		c-1.933,0-3.506-1.573-3.506-3.507V26.791c0-1.933,1.573-3.505,3.506-3.505h227.036c1.933,0,3.506,1.572,3.506,3.505v168.171
		C242.014,196.896,240.44,198.469,238.508,198.469"/>
	<path fill="#FFFFFF" d="M117.397,63.262c-30.458,0-55.23,24.771-55.23,55.223c0,30.453,24.773,55.229,55.23,55.229
		c30.452,0,55.224-24.776,55.224-55.229C172.621,88.033,147.85,63.262,117.397,63.262 M117.397,180.113
		c-33.979,0-61.627-27.646-61.627-61.628c0-33.98,27.648-61.62,61.627-61.62c33.974,0,61.623,27.64,61.623,61.62
		C179.021,152.466,151.371,180.113,117.397,180.113"/>
	<path fill="#FFFFFF" d="M117.397,63.568c-30.286,0-54.923,24.636-54.923,54.917c0,30.284,24.637,54.921,54.923,54.921
		c30.283,0,54.916-24.637,54.916-54.921C172.313,88.205,147.681,63.568,117.397,63.568 M117.397,174.021
		c-30.624,0-55.536-24.914-55.536-55.535c0-30.62,24.912-55.531,55.536-55.531c30.617,0,55.532,24.911,55.532,55.531
		C172.93,149.107,148.015,174.021,117.397,174.021 M117.397,57.172c-33.812,0-61.32,27.503-61.32,61.313
		c0,33.812,27.508,61.319,61.32,61.319c33.809,0,61.314-27.507,61.314-61.319C178.712,84.676,151.206,57.172,117.397,57.172
		 M117.397,180.418c-34.15,0-61.933-27.782-61.933-61.933c0-34.146,27.783-61.927,61.933-61.927
		c34.147,0,61.928,27.781,61.928,61.927C179.325,152.636,151.545,180.418,117.397,180.418"/>
	<path fill="#FFFFFF" d="M73.1,13.763H26.198c-1.769,0-3.2-1.43-3.2-3.198c0-1.77,1.431-3.198,3.2-3.198H73.1
		c1.768,0,3.194,1.429,3.194,3.198C76.294,12.333,74.867,13.763,73.1,13.763"/>
	<path fill="#FFFFFF" d="M26.198,7.674c-1.595,0-2.892,1.295-2.892,2.891c0,1.594,1.297,2.893,2.892,2.893H73.1
		c1.592,0,2.886-1.299,2.886-2.893c0-1.596-1.294-2.891-2.886-2.891H26.198z M73.1,14.07H26.198c-1.932,0-3.506-1.573-3.506-3.505
		c0-1.934,1.574-3.506,3.506-3.506H73.1c1.929,0,3.5,1.573,3.5,3.506C76.599,12.497,75.028,14.07,73.1,14.07"/>
	<path fill="#FFFFFF" d="M185.284,61.065h33.576V47.47h-33.576V61.065z M222.053,67.457h-39.971c-1.764,0-3.194-1.43-3.194-3.198
		V44.275c0-1.769,1.431-3.198,3.194-3.198h39.971c1.768,0,3.199,1.43,3.199,3.198v19.983
		C225.252,66.027,223.82,67.457,222.053,67.457"/>
	<path fill="#FFFFFF" d="M185.593,60.758h32.962V47.777h-32.962V60.758z M219.169,61.371h-34.19V47.163h34.19V61.371z
		 M182.082,41.384c-1.593,0-2.89,1.298-2.89,2.893v19.979c0,1.596,1.297,2.893,2.89,2.893h39.971c1.597,0,2.894-1.297,2.894-2.893
		V44.277c0-1.595-1.297-2.893-2.894-2.893H182.082z M222.053,67.764h-39.971c-1.931,0-3.502-1.573-3.502-3.507V44.277
		c0-1.932,1.571-3.506,3.502-3.506h39.971c1.935,0,3.507,1.574,3.507,3.506v19.979C225.56,66.19,223.987,67.764,222.053,67.764"/>
</g>
</svg>
