<?xml version="1.0" encoding="utf-8"?>
<!-- Generator: Adobe Illustrator 16.0.0, SVG Export Plug-In . SVG Version: 6.00 Build 0)  -->
<!DOCTYPE svg PUBLIC "-//W3C//DTD SVG 1.1//EN" "http://www.w3.org/Graphics/SVG/1.1/DTD/svg11.dtd">
<svg version="1.1" id="Calque_1" xmlns="http://www.w3.org/2000/svg" xmlns:xlink="http://www.w3.org/1999/xlink" x="0px" y="0px"
	 width="100px" height="100px" viewBox="0 0 100 100" enable-background="new 0 0 100 100" xml:space="preserve">
<g>
	<path fill="#EE6B71" d="M12.696,12.252c4.728-4.098,10.244-6.146,16.547-6.146c9.377,0,16.469,4.708,21.275,14.125
		c1.182-4.295,3.96-7.782,8.333-10.46c4.019-2.443,8.371-3.664,13.06-3.664c6.855,0,12.578,2.197,17.168,6.589
		c4.59,4.393,6.885,9.998,6.885,16.813c0,6.934-2.324,13.316-6.974,19.147c-4.373,4.767-8.727,9.555-13.061,14.36
		c-4.649,5.988-6.974,12.647-6.974,19.976c0,2.837,0.296,5.811,0.887,8.923C53.571,84.152,39.94,75.722,28.948,66.62
		C13.149,53.501,5.25,40.638,5.25,28.031C5.25,21.805,7.732,16.545,12.696,12.252z"/>
</g>
</svg>
