<?xml version="1.0" encoding="utf-8"?>
<!-- Generator: Adobe Illustrator 16.0.0, SVG Export Plug-In . SVG Version: 6.00 Build 0)  -->
<!DOCTYPE svg PUBLIC "-//W3C//DTD SVG 1.1//EN" "http://www.w3.org/Graphics/SVG/1.1/DTD/svg11.dtd">
<svg version="1.1" id="Calque_1" xmlns="http://www.w3.org/2000/svg" xmlns:xlink="http://www.w3.org/1999/xlink" x="0px" y="0px"
	 width="100px" height="100px" viewBox="0 0 100 100" enable-background="new 0 0 100 100" xml:space="preserve">
<g>
	<path fill="#EE6B71" d="M94.714,28.314c0,12.317-7.717,24.884-23.152,37.701c-10.739,8.892-24.056,17.129-39.953,24.711
		c0.577-3.04,0.866-5.946,0.866-8.718c0-7.159-2.271-13.664-6.813-19.515c-4.233-4.696-8.486-9.373-12.759-14.03
		C8.361,42.768,6.09,36.532,6.09,29.758c0-6.659,2.242-12.134,6.726-16.425C17.3,9.04,22.891,6.895,29.588,6.895
		c4.581,0,8.834,1.193,12.76,3.58c4.272,2.618,6.986,6.024,8.141,10.219c4.695-9.2,11.624-13.799,20.785-13.799
		c6.158,0,11.546,2.001,16.166,6.005C92.289,17.095,94.714,22.233,94.714,28.314z"/>
</g>
</svg>
