<?xml version="1.0" encoding="utf-8"?>
<!-- Generator: Adobe Illustrator 16.0.0, SVG Export Plug-In . SVG Version: 6.00 Build 0)  -->
<!DOCTYPE svg PUBLIC "-//W3C//DTD SVG 1.1//EN" "http://www.w3.org/Graphics/SVG/1.1/DTD/svg11.dtd">
<svg version="1.1" id="Calque_1" xmlns="http://www.w3.org/2000/svg" xmlns:xlink="http://www.w3.org/1999/xlink" x="0px" y="0px"
	 width="100px" height="100px" viewBox="0 0 100 100" enable-background="new 0 0 100 100" xml:space="preserve">
<g>
	<path fill="#F49CA1" d="M13.23,13.932C17.872,9.911,23.287,7.9,29.472,7.9c9.206,0,16.166,4.62,20.885,13.863
		c1.161-4.214,3.887-7.635,8.178-10.268C62.481,9.099,66.756,7.9,71.355,7.9c6.729,0,12.346,2.155,16.853,6.468
		c4.507,4.311,6.759,9.814,6.759,16.504c0,6.806-2.283,13.07-6.847,18.795c-4.294,4.679-8.564,9.376-12.821,14.095
		c-4.56,5.878-6.843,12.415-6.843,19.607c0,2.782,0.29,5.704,0.869,8.76c-15.97-7.621-29.353-15.896-40.143-24.829
		C13.676,54.424,5.921,41.796,5.921,29.421C5.921,23.311,8.357,18.148,13.23,13.932z"/>
</g>
</svg>
