<?xml version="1.0" encoding="utf-8"?>
<!-- Generator: Adobe Illustrator 16.0.0, SVG Export Plug-In . SVG Version: 6.00 Build 0)  -->
<!DOCTYPE svg PUBLIC "-//W3C//DTD SVG 1.1//EN" "http://www.w3.org/Graphics/SVG/1.1/DTD/svg11.dtd">
<svg version="1.1" id="Calque_1" xmlns="http://www.w3.org/2000/svg" xmlns:xlink="http://www.w3.org/1999/xlink" x="0px" y="0px"
	 width="100px" height="100px" viewBox="0 0 100 100" enable-background="new 0 0 100 100" xml:space="preserve">
<g>
	<defs>
		<rect id="SVGID_1_" x="4.562" y="8.976" width="91.314" height="80.124"/>
	</defs>
	<clipPath id="SVGID_2_">
		<use xlink:href="#SVGID_1_"  overflow="visible"/>
	</clipPath>
	<path clip-path="url(#SVGID_2_)" fill="#E30812" d="M31.147,72.77h38.794v9.995H31.147V72.77z M71.299,63.844
		c-0.75,0-1.357,0.607-1.357,1.357v4.857H31.147v-3.502c0-0.748-0.605-1.355-1.354-1.355c-0.75,0-1.357,0.607-1.357,1.355v17.565
		c0,0.746,0.607,1.354,1.357,1.354h41.505c0.746,0,1.355-0.607,1.355-1.354V65.201C72.654,64.451,72.045,63.844,71.299,63.844"/>
	<path clip-path="url(#SVGID_2_)" fill="#E30812" d="M31.944,81.966h37.198v-8.399H31.944V81.966z M70.738,83.563H30.35V71.973
		h40.388V83.563z M29.793,66c-0.308,0-0.556,0.25-0.556,0.559v17.565c0,0.305,0.248,0.553,0.556,0.553h41.505
		c0.306,0,0.557-0.248,0.557-0.553V65.201c0-0.308-0.251-0.56-0.557-0.56c-0.309,0-0.561,0.252-0.561,0.56v5.655H30.35v-4.298
		C30.35,66.25,30.102,66,29.793,66 M71.299,86.272H29.793c-1.188,0-2.154-0.964-2.154-2.148V66.559c0-1.188,0.966-2.156,2.154-2.156
		c1.188,0,2.151,0.969,2.151,2.156v2.701h37.198v-4.059c0-1.188,0.968-2.156,2.156-2.156c1.188,0,2.152,0.969,2.152,2.156v18.923
		C73.451,85.309,72.486,86.272,71.299,86.272"/>
	<path clip-path="url(#SVGID_2_)" fill="#E30812" d="M71.299,9.774H29.793c-0.75,0-1.357,0.609-1.357,1.359v16.794
		c0,0.75,0.607,1.359,1.357,1.359c0.749,0,1.354-0.609,1.354-1.359V13.839c0-0.745,0.609-1.354,1.357-1.354h36.083
		c0.75,0,1.354,0.609,1.354,1.354v13.973c0,0.752,0.607,1.359,1.357,1.359c0.746,0,1.355-0.607,1.355-1.359V11.134
		C72.654,10.384,72.045,9.774,71.299,9.774"/>
	<path clip-path="url(#SVGID_2_)" fill="#E30812" d="M29.793,10.572c-0.308,0-0.556,0.251-0.556,0.56v16.796
		c0,0.308,0.248,0.56,0.556,0.56c0.309,0,0.557-0.252,0.557-0.56V13.841c0-1.188,0.966-2.153,2.154-2.153h36.083
		c1.187,0,2.15,0.964,2.15,2.153v13.973c0,0.308,0.252,0.56,0.561,0.56c0.306,0,0.557-0.252,0.557-0.56V11.132
		c0-0.309-0.251-0.56-0.557-0.56H29.793z M29.793,30.084c-1.188,0-2.154-0.966-2.154-2.156V11.132c0-1.19,0.966-2.156,2.154-2.156
		h41.505c1.188,0,2.152,0.966,2.152,2.156v16.682c0,1.188-0.965,2.156-2.152,2.156c-1.188,0-2.156-0.968-2.156-2.156V13.841
		c0-0.307-0.248-0.557-0.555-0.557H32.504c-0.308,0-0.56,0.25-0.56,0.557v14.087C31.944,29.118,30.982,30.084,29.793,30.084"/>
	<path clip-path="url(#SVGID_2_)" fill="#A1A1A1" d="M53.5,76.391h-5.908c-0.748,0-1.357,0.608-1.357,1.354
		c0,0.75,0.609,1.358,1.357,1.358H53.5c0.746,0,1.354-0.608,1.354-1.358C54.854,76.999,54.246,76.391,53.5,76.391"/>
	<path clip-path="url(#SVGID_2_)" fill="#E30812" d="M22.09,74.741c0.74-0.101,1.259-0.789,1.158-1.524
		c-0.104-0.748-0.786-1.265-1.53-1.163l-5.076,0.699c-0.199,0.03-0.375,0.104-0.534,0.207L8.243,15.797l12.539-1.728
		c0.741-0.102,1.259-0.788,1.156-1.528c-0.104-0.742-0.786-1.257-1.525-1.156l-13.88,1.91c-0.741,0.104-1.262,0.784-1.162,1.526
		l9.948,72.312c0.104,0.742,0.786,1.256,1.526,1.157l5.2-0.716c0.737-0.102,1.258-0.784,1.156-1.524v-0.004
		c-0.104-0.742-0.788-1.262-1.528-1.158l-3.854,0.532l-1.376-10.032c0.181,0.056,0.371,0.077,0.572,0.051L22.09,74.741z"/>
	<path clip-path="url(#SVGID_2_)" fill="#E30812" d="M15.548,74.279l1.128,0.346c0.058,0.019,0.115,0.026,0.169,0.026l5.136-0.701
		c0.305-0.041,0.519-0.323,0.478-0.626c-0.04-0.276-0.276-0.485-0.553-0.485l-5.154,0.703c-0.064,0.012-0.139,0.04-0.207,0.085
		L15.548,74.279z M20.601,12.169L6.64,14.087c-0.303,0.042-0.517,0.323-0.476,0.626l9.944,72.312
		c0.043,0.299,0.31,0.516,0.634,0.474l5.192-0.714c0.303-0.042,0.517-0.323,0.476-0.626l-0.004-0.028
		c-0.049-0.26-0.278-0.457-0.545-0.457l-4.722,0.646L15.48,74.261L7.343,15.115l13.328-1.835c0.148-0.022,0.276-0.098,0.367-0.216
		c0.092-0.119,0.131-0.265,0.109-0.412C21.109,12.376,20.875,12.169,20.601,12.169 M16.665,89.1c-1.07,0-1.989-0.799-2.136-1.855
		L4.581,14.929c-0.158-1.175,0.667-2.262,1.842-2.423l13.881-1.912c1.175-0.166,2.263,0.682,2.423,1.836
		c0.081,0.57-0.068,1.135-0.416,1.596c-0.346,0.46-0.852,0.754-1.421,0.833L9.142,16.48l7.628,55.45l4.841-0.664
		c1.182-0.169,2.267,0.681,2.427,1.843c0.162,1.171-0.662,2.261-1.838,2.423l-4.841,0.665l1.145,8.326l3.061-0.423
		c1.177-0.167,2.267,0.681,2.429,1.837L24,86.002c0.124,1.15-0.692,2.203-1.846,2.363l-5.198,0.716
		C16.856,89.094,16.759,89.1,16.665,89.1"/>
	<path clip-path="url(#SVGID_2_)" fill="#E30812" d="M93.907,12.957l-13.877-1.91c-0.742-0.104-1.429,0.414-1.532,1.158
		c-0.098,0.739,0.423,1.423,1.164,1.528l12.532,1.722l-7.859,57.16c-0.159-0.098-0.338-0.175-0.537-0.201l-5.078-0.697
		c-0.738-0.104-1.425,0.416-1.528,1.156c-0.102,0.74,0.418,1.427,1.158,1.53l5.079,0.697c0.198,0.024,0.392,0,0.572-0.051
		l-1.38,10.027l-3.854-0.524c-0.745-0.105-1.426,0.413-1.527,1.154c-0.103,0.74,0.414,1.427,1.154,1.524l5.196,0.716
		c0.744,0.102,1.429-0.415,1.526-1.156l9.948-72.31C95.167,13.741,94.648,13.055,93.907,12.957"/>
	<path clip-path="url(#SVGID_2_)" fill="#E30812" d="M78.577,85.336c-0.272,0-0.51,0.207-0.547,0.481
		c-0.021,0.148,0.019,0.292,0.109,0.412c0.086,0.116,0.218,0.191,0.362,0.212l5.278,0.723c0.276,0,0.51-0.207,0.548-0.479
		l9.947-72.312c0.02-0.146-0.019-0.295-0.108-0.412c-0.091-0.119-0.219-0.194-0.365-0.212l-13.881-1.912
		c-0.356,0.013-0.594,0.201-0.631,0.476c-0.042,0.302,0.175,0.588,0.48,0.629l13.323,1.831l-8.135,59.166l-1.045-0.643
		c-0.079-0.053-0.154-0.081-0.218-0.088l-5.087-0.701c-0.368,0.004-0.589,0.201-0.628,0.478c-0.041,0.304,0.173,0.586,0.478,0.629
		l5.081,0.698c0.107-0.002,0.169-0.01,0.24-0.028l1.175-0.339l-1.653,12.033L78.577,85.336z M83.78,88.758L83.78,88.758
		c-0.098,0-0.197-0.008-0.299-0.021l-5.195-0.717c-0.564-0.073-1.07-0.366-1.418-0.825c-0.35-0.46-0.5-1.026-0.417-1.598
		c0.158-1.156,1.233-2.002,2.425-1.837l3.062,0.418l1.145-8.318l-4.842-0.668c-1.177-0.163-2.003-1.252-1.839-2.429
		c0.162-1.155,1.244-2.002,2.427-1.838l4.841,0.665l7.624-55.455l-11.743-1.613c-1.171-0.164-1.998-1.25-1.844-2.423
		c0.161-1.164,1.236-2.01,2.433-1.842l13.877,1.91c0.567,0.073,1.071,0.369,1.421,0.825c0.346,0.459,0.496,1.026,0.417,1.598
		L85.91,86.898C85.768,87.957,84.851,88.758,83.78,88.758"/>
	<path clip-path="url(#SVGID_2_)" fill="#A1A1A1" d="M38.467,39.297c-0.53-0.53-1.387-0.53-1.914,0l-7.67,7.664
		c-0.53,0.53-0.53,1.387,0,1.919l7.67,7.662c0.526,0.532,1.383,0.532,1.914,0c0.53-0.524,0.53-1.382,0-1.916l-5.354-5.352h34.491
		c0.12,0,0.233-0.04,0.341-0.069l-5.42,5.421c-0.53,0.534-0.53,1.392,0,1.916c0.528,0.532,1.388,0.532,1.915,0l7.668-7.662
		c0.53-0.532,0.53-1.389,0-1.919l-7.668-7.664c-0.527-0.53-1.387-0.53-1.915,0c-0.53,0.528-0.53,1.387,0,1.916l5.42,5.419
		c-0.107-0.028-0.221-0.069-0.341-0.069H33.113l5.354-5.35C38.998,40.685,38.998,39.826,38.467,39.297"/>
</g>
</svg>
