<?xml version="1.0" encoding="utf-8"?>
<!-- Generator: Adobe Illustrator 16.0.0, SVG Export Plug-In . SVG Version: 6.00 Build 0)  -->
<!DOCTYPE svg PUBLIC "-//W3C//DTD SVG 1.1//EN" "http://www.w3.org/Graphics/SVG/1.1/DTD/svg11.dtd">
<svg version="1.1" id="Calque_1" xmlns="http://www.w3.org/2000/svg" xmlns:xlink="http://www.w3.org/1999/xlink" x="0px" y="0px"
	 width="100.5px" height="103.974px" viewBox="-50.5 -52.246 100.5 103.974" enable-background="new -50.5 -52.246 100.5 103.974"
	 xml:space="preserve">
<g>
	<path fill="#E0CCB3" d="M-14.69-6.845c0,0,6.776-9.031,13.491-7.593c6.71,1.431,11.762,1.498,15.606,6.695
		c3.844,5.192-2.241-14.654-2.241-14.654s-5.968-5.712-12.393-5.095c-6.427,0.609-14.286,3.812-15.109,8.393
		C-16.157-14.528-18.547-8.859-14.69-6.845"/>
	<path fill="#E0CCB3" d="M-46.591-0.611c0,0-1.802,17.617,8.587,33.075c10.392,15.466,41.08,16.1,52.413,12.547
		c11.339-3.545,20.462-5.827,25.402-14.065c4.944-8.236,6.812-27.787,6.323-36.466c-0.492-8.674-10.886,1.999-15.578,12.77
		C25.868,18.022,14.52,27.899-7.878,24.099c-22.395-3.8-27.72-31.81-27.72-31.81S-44.155-25.32-46.591-0.611"/>
	<path fill="#FF7A94" d="M-0.111,11.039C-9.153,9.962-14.983,5.116-14.688-6.845C-14.4-18.803-1.216-19.092-1.216-19.092
		c9.389-0.294,13.355,4.954,16.562,13.75C18.551,3.462,8.93,12.113-0.111,11.039 M40.22-29.653
		C27.53-49.528-9.473-48.546-17.012-45.881c-8.093,2.862-18.909,7.835-25.378,23.482c-6.469,15.647-7.962,40.776,13.934,55.208
		c21.9,14.427,51.762,7.869,61.463-0.813C42.711,23.306,52.914-9.78,40.22-29.653"/>
</g>
<g>
	<path fill="#00A1C2" d="M35.902-19.103c0,0-0.761,0-0.761,0.504s-0.084,2.534,0.381,3.972c0,0,1.143,0.084,1.311-0.338
		C37.005-15.387,35.902-19.103,35.902-19.103"/>
	<path fill="#00A1C2" d="M0.636-35.589c0,0,5.084-1.773,6.979-2.411c0,0,0.762,0.252,0.934,0.592
		c0.167,0.338-4.06,2.197-5.749,2.871c0,0-1.712,0.845-2.165,0.424C0.186-34.534,0.636-35.589,0.636-35.589"/>
	<path fill="#F5C447" d="M24.012,7.875c0,0-3.042,2.961-3.466,3.72c0,0-0.422,0.424,0,0.763c0.424,0.338,0.676,0.422,1.269,0
		c0.59-0.422,2.196-2.279,3.04-2.956C25.7,8.725,24.012,7.875,24.012,7.875"/>
	<path fill="#FFFFFF" d="M-3.449,20.3c0,0-1.771,3.8-1.941,5.236c0,0,0.425,0.43,0.971,0.595c0.546,0.168,1.99-5.829,1.99-5.829
		S-3.168,19.692-3.449,20.3"/>
	<path fill="#FFFFFF" d="M31.354-35.358c0,0,0.304-0.998,0.06-1.248c-0.249-0.245-3.092-0.277-3.945-0.002
		c0,0-0.144,0.407,0.178,1.188C27.646-35.419,30.385-36.04,31.354-35.358"/>
	<path fill="#F5C447" d="M-31.077-25.916c0,0-2.365,1.349-2.535,3.295c0,0,0.256,0.42,0.845,0.76c0,0,0.338-0.422,0.761-1.181
		c0.425-0.762,1.775-2.287,1.775-2.287L-31.077-25.916z"/>
	<path fill="#FFFFFF" d="M-32.344-7.749c0,0-0.761,2.291-0.761,4.736c0,0-0.17,0.417,0.38,0.417c0.549,0,0.634-0.249,0.806-1.393
		c0.164-1.143,0.251-3.089,0.671-3.76C-30.822-8.427-32.035-8.882-32.344-7.749"/>
	<path fill="#F5455C" d="M14.632,27.565c0,0,3.296-0.254,3.884-0.593c0,0,0.508,0.175,0.508,0.593c0,0.424-2.465,1.019-3.049,1.019
		c-0.583,0-1.345,0.248-1.345,0.248S14.126,28.412,14.632,27.565"/>
	<path fill="#FFFFFF" d="M-4.362-45.757c0,0-2.463,2.207-2.727,2.833c0,0-0.505,0.172-0.764-0.16
		c-0.252-0.334,1.344-2.308,1.806-2.66c0.464-0.357,0.914-1.018,0.914-1.018S-4.472-46.735-4.362-45.757"/>
	<path fill="#F5455C" d="M-15.868-33.992c0,0-0.252,3.091,0,4.866c0,0,1.064,0.678,1.168,0c0.102-0.676-0.356-4.398,0-5.831
		C-14.7-34.958-15.775-35.657-15.868-33.992"/>
	<path fill="#75BA9E" d="M14.837-21.145h2.449c0,0,0.42,0.338,0.42,0.93c0,0.588-3.045,0.167-3.381,0
		C13.985-20.385,14.837-21.145,14.837-21.145"/>
	<path fill="#75BA9E" d="M-41.41-4.839c0,0-0.576,1.498-0.879,2.292c0,0-0.467,0.271-1.021,0.056
		c-0.55-0.212,0.937-2.895,1.217-3.15C-41.814-5.898-41.41-4.839-41.41-4.839"/>
	<path fill="#00A1C2" d="M-27.017,21.975c0,0,1.346,3.091,2.809,4.066c0,0,0.637,0.32,0.699-0.239
		c0.06-0.554-2.193-3.017-2.763-4.516C-26.835,19.797-27.226,21.531-27.017,21.975"/>
</g>
</svg>
