<?xml version="1.0" encoding="utf-8"?>
<!-- Generator: Adobe Illustrator 16.0.0, SVG Export Plug-In . SVG Version: 6.00 Build 0)  -->
<!DOCTYPE svg PUBLIC "-//W3C//DTD SVG 1.1//EN" "http://www.w3.org/Graphics/SVG/1.1/DTD/svg11.dtd">
<svg version="1.1" id="Calque_1" xmlns="http://www.w3.org/2000/svg" xmlns:xlink="http://www.w3.org/1999/xlink" x="0px" y="0px"
	 width="100.5px" height="116.623px" viewBox="-50.5 -58.601 100.5 116.623" enable-background="new -50.5 -58.601 100.5 116.623"
	 xml:space="preserve">
<g>
	<path fill="#D9914F" d="M43.652,15.377c-0.186-0.061-0.408-0.061-0.671,0.008c-0.597,0.152-2.717,3.97-3.484,4.639
		c-1.377,1.184-3.154,2.014-4.975,1.896c-1.341-0.09-2.594-0.678-3.746-1.375c-3.562-2.163-6.497-7.169-7.125-11.292
		c-0.922-6.018,3.207-11.815,8.3-15.151c2.271-1.479,4.055-2.174,6.637-1.99c4.794,0.338,3.578-0.146,3.312-4.629
		c-0.39-6.434,0.342-11.467-0.104-17.952c-0.024-0.338-0.063-0.707-0.294-0.963c-0.291-0.326-0.78-0.35-1.223-0.34
		c-3.79,0.057-7.562,0.483-11.312,1.043c-3.167,0.469-8.556,1.146-11.647,0.512c-3.307-0.678-2.053-3.403-1.771-6.217
		c0.344-3.387,0.137-6.975-1.408-10.083c-1.111-2.326-2.854-4.418-5.295-6.087c-8.44-5.77-19.587-5.715-26.114,3.13
		c-2.605,3.523-3.966,7.786-3.618,12.167c0.34,4.142,2.598,5.539,4.166,9.1c-3.208,1.592-15.3,0.908-18.856,1.023
		c-2.261,0.068-6.29-0.75-8.296,0.523c-3.061,1.93-2.429,7.079-2.011,10.094c0.654,4.752,1.084,9.042,1.266,13.926
		c0.034,0.867,0.73,6.631,2.957,3.26c1.221-1.849,2.806-3.191,4.612-4.094c5.564-2.775,14.395-1.423,16.242,5.157
		c1.718,6.123,3.262,13.979-0.122,19.732c-2.695,4.587-10.218,8.744-15.625,6.468c-0.906-0.383-6.935-2.963-6.587-0.07
		c0.799,6.713,0.736,10.404,0.725,17.242c-0.008,2.436,0.009,4.944,0.986,7.171c0.266,0.604,0.632,1.201,1.229,1.473
		c0.521,0.235,1.124,0.179,1.695,0.128c11.161-0.929,22.484-0.763,33.766-0.84c15.273,0,30.715,0.375,45.974-0.257
		c3.703-0.149,4.094-0.613,4.223-4.104c0.141-3.65-0.233-7.397-0.349-11.049c-0.196-6.137-0.393-10.768-0.581-16.907
		C44.476,19.199,45.048,15.804,43.652,15.377"/>
</g>
</svg>
