<?xml version="1.0" encoding="utf-8"?>
<!-- Generator: Adobe Illustrator 16.0.0, SVG Export Plug-In . SVG Version: 6.00 Build 0)  -->
<!DOCTYPE svg PUBLIC "-//W3C//DTD SVG 1.1//EN" "http://www.w3.org/Graphics/SVG/1.1/DTD/svg11.dtd">
<svg version="1.1" id="Calque_1" xmlns="http://www.w3.org/2000/svg" xmlns:xlink="http://www.w3.org/1999/xlink" x="0px" y="0px"
	 width="100.5px" height="87.349px" viewBox="-50.5 -43.892 100.5 87.349" enable-background="new -50.5 -43.892 100.5 87.349"
	 xml:space="preserve">
<g id="XMLID_2395_">
	<path id="XMLID_2399_" fill="#D90000" d="M-19.708,26.397c0,0-21.658-4.33-26.656-22.968c-4.999-18.642,6.433-41.425,35.668-43.497
		c29.235-2.074,46.321,9.25,56.158,26.891c9.839,17.639-16.909,34.58-32.271,39.574l-3.454,12.7l-4.66-10.566
		C5.077,28.531-3.07,29.168-19.708,26.397z"/>
	<path id="XMLID_2398_" fill="#FFFFFF" d="M5.017-21.876c0,0,0-1.381-2.441-1.381c-2.443,0-5.536,0-5.565,1.381
		c0,0-0.271,11.647,0,14.229c0.004,0.026,0.006,0.055,0.01,0.086c-2.643,0.043-6.783,0.014-10.018-0.024
		c-0.058-2.385-0.093-4.221-0.065-4.965c0.116-3.225,0.806-10.792-0.116-10.981c-0.921-0.189-7.688-0.96-7.715,0
		c0,0-0.46,15.406,0,22.923c0.461,7.518-0.576,15.002,0.692,15.348c1.267,0.345,6.219,0.46,7.139,0
		c0.562-0.28,0.396-9.177,0.205-16.802c3.229,0.014,7.371-0.036,10.112-0.079c0.028,2.676-0.061,5.475-0.367,6.864
		c-0.557,2.533,0,8.751,0,8.751s-0.014,0.921,1.884,0.921c1.9,0,4.475,0,4.475,0s1.358,0.806,1.086-2.418
		C4.062,8.755,3.86-5.18,4.369-8.635C4.879-12.088,5.017-21.876,5.017-21.876z"/>
	<path id="XMLID_2397_" fill="#FFFFFF" d="M14.668-13.585c0,0-1.541,0.118-1.673,1.382c-0.131,1.268-0.388,7.255,0,12.781
		c0.387,5.527-0.204,12.09-0.204,12.09s-0.645,0.923,0.937,1.037c1.581,0.115,5.186,0.921,5.312-1.151
		c0.13-2.073,0.514-20.612,0-22.569c-0.514-1.958,1.029-3.569-1.669-3.569C14.668-13.585,14.668-13.585,14.668-13.585z"/>
	<path id="XMLID_2396_" fill="#FFFFFF" d="M14.367-22.045c0,0-2.009,1.857-1.004,3.581c1.004,1.723,2.873,2.918,4.878,1.324
		c2.011-1.592,0.864-4.508-1.002-4.907C15.373-22.443,14.367-22.045,14.367-22.045z"/>
</g>
</svg>
