<?xml version="1.0" encoding="utf-8"?>
<!-- Generator: Adobe Illustrator 16.0.0, SVG Export Plug-In . SVG Version: 6.00 Build 0)  -->
<!DOCTYPE svg PUBLIC "-//W3C//DTD SVG 1.1//EN" "http://www.w3.org/Graphics/SVG/1.1/DTD/svg11.dtd">
<svg version="1.1" id="Calque_1" xmlns="http://www.w3.org/2000/svg" xmlns:xlink="http://www.w3.org/1999/xlink" x="0px" y="0px"
	 width="100px" height="107.161px" viewBox="0 0 100 107.161" enable-background="new 0 0 100 107.161" xml:space="preserve">
<g>
	<path fill="#47474A" d="M2.529,46.929c-0.009,0.981,0.499,1.879,0.989,2.73c1.686,2.899,3.369,5.802,5.053,8.708
		C31.209,44.52,53.848,30.675,76.483,16.829c0.602-0.368,1.266-0.819,1.382-1.514c0.101-0.617-0.268-1.205-0.615-1.721
		c-2.021-2.972-4.088-5.909-6.214-8.809c-0.36-0.493-0.772-1.018-1.366-1.159c-0.666-0.159-1.331,0.219-1.912,0.582
		C47.126,17.074,26.497,29.94,5.868,42.808C4.299,43.785,2.544,45.079,2.529,46.929"/>
	<path fill="#47474A" d="M18.913,103.338c0.064,0.223,0.125,0.443,0.185,0.668c0.853,0.141,1.701-0.01,2.583-0.15
		c23.08-3.77,46.163-7.541,69.247-11.309c2.397-0.393,5.171-1.059,6.166-3.277c0.538-1.211,0.391-2.609,0.225-3.922
		c-1.823-14.011-5.18-27.816-9.987-41.099c-0.562-1.562-1.321-3.295-2.881-3.86c-1.071-0.384-2.258-0.109-3.356,0.17
		c-19.567,4.929-39.075,10.059-58.525,15.4c-2.762,0.762-10.36,1.403-11.835,3.94c-1.373,2.366,1.326,10.995,1.761,13.713
		C14.085,83.633,16.256,93.547,18.913,103.338"/>
	<path fill="#E0E0E0" d="M8.545,58.87c2.246-1.25,4.494-2.496,6.736-3.747c1.131-0.625,2.278-1.271,3.153-2.222
		c0.872-0.949,1.415-2.147,1.946-3.32c3.357-7.435,6.708-14.868,10.063-22.3c-4.431,2.094-8.694,4.535-12.747,7.296
		c-0.449,0.31-0.907,0.627-1.265,1.042c-0.533,0.622-0.804,1.423-1.087,2.193c-1.646,4.537-3.897,8.823-6.162,13.08
		c-0.669,1.263-1.355,2.551-1.609,3.96C7.32,56.259,7.562,57.833,8.545,58.87"/>
	<path fill="#E0E0E0" d="M36.41,41.879c1.591-0.91,3.193-1.833,4.542-3.072c2.705-2.471,4.174-5.975,5.558-9.363
		c2.225-5.424,4.451-10.852,6.673-16.282c-2.833,1.26-5.572,2.732-8.178,4.402c-1.325,0.853-2.635,1.77-3.707,2.922
		c-1.286,1.375-2.202,3.043-3.084,4.706c-3.638,6.887-6.895,13.98-9.737,21.233C31.118,44.913,33.763,43.393,36.41,41.879"/>
	<path fill="#E0E0E0" d="M66.116,21.815c1.453-2.033,2.501-4.33,3.541-6.608c0.907-1.992,1.816-3.997,2.374-6.109
		c0.519-1.97,0.524-4.485-1.201-5.566c-1.215-0.761-2.867-0.448-4.032,0.382c-1.165,0.831-1.948,2.084-2.693,3.312
		c-4.836,8.045-9,16.5-12.423,25.243C57.042,29.681,62.599,26.724,66.116,21.815"/>
	<path fill="#E0E0E0" d="M25.451,66.189c2.305-0.377,4.611-0.756,6.917-1.136c1.657-0.273,3.395-0.579,4.703-1.629
		c-3.239-2.475-6.603-4.783-10.071-6.917c-0.558-0.343-1.123-0.683-1.747-0.871c-1.267-0.386-2.627-0.113-3.925,0.158
		c-1.136,0.243-2.266,0.485-3.401,0.725c-2.288,0.487-4.761,1.082-6.249,2.89c3.598,2.088,7.189,4.169,10.784,6.249
		c0.424,0.25,0.855,0.496,1.337,0.598C24.344,66.367,24.903,66.276,25.451,66.189"/>
	<path fill="#E0E0E0" d="M44.504,49.561c-2.98,0.879-5.915,1.906-8.798,3.062c4.318,2.236,8.63,4.471,12.942,6.708
		c0.565,0.29,1.135,0.583,1.753,0.75c0.884,0.24,1.822,0.193,2.735,0.116c3.751-0.338,7.444-1.317,10.871-2.883
		c-2.635-1.812-5.27-3.624-7.903-5.436c-2.053-1.413-4.229-2.873-6.717-3.084C47.734,48.659,46.095,49.091,44.504,49.561"/>
	<path fill="#E0E0E0" d="M80.562,54.968c2.088-0.273,4.174-0.544,6.265-0.82c0.17-0.729-0.604-1.301-1.269-1.646
		c-4.067-2.136-8.136-4.27-12.206-6.401c-1.159-0.609-2.33-1.22-3.581-1.594c-3.166-0.949-6.779-0.233-9.345,1.845
		c2.434,1.43,4.887,2.871,6.975,4.767c1.126,1.018,2.151,2.171,3.451,2.953C73.696,55.772,77.274,55.396,80.562,54.968"/>
	<path fill="#788F8A" d="M73.073,63.838c-16.416,2.405-32.656,6.017-48.542,10.811c-0.205,0.904-0.121,1.861,0.216,2.718
		c16.932-4.132,34.845-4.26,51.129-10.472C74.773,66.046,73.823,65.007,73.073,63.838"/>
	<path fill="#788F8A" d="M60.691,77.514c-0.232,0-0.46,0.05-0.69,0.099c-11.312,2.41-23.317,1.178-34.281,4.867
		c0.383,0.779,0.766,1.557,1.147,2.336c0.123,0.246,0.256,0.512,0.504,0.643c0.139,0.078,0.299,0.102,0.46,0.102
		c0.119,0,0.237-0.012,0.356-0.027c12.017-1.363,23.996-3.072,35.913-5.109c-0.737-0.755-1.472-1.505-2.209-2.258
		c-0.248-0.246-0.505-0.505-0.834-0.6C60.935,77.528,60.817,77.514,60.691,77.514"/>
</g>
</svg>
