<?xml version="1.0" encoding="utf-8"?>
<!-- Generator: Adobe Illustrator 16.0.0, SVG Export Plug-In . SVG Version: 6.00 Build 0)  -->
<!DOCTYPE svg PUBLIC "-//W3C//DTD SVG 1.1//EN" "http://www.w3.org/Graphics/SVG/1.1/DTD/svg11.dtd">
<svg version="1.1" id="Calque_1" xmlns="http://www.w3.org/2000/svg" xmlns:xlink="http://www.w3.org/1999/xlink" x="0px" y="0px"
	 width="100px" height="104px" viewBox="0 0 100 104" enable-background="new 0 0 100 104" xml:space="preserve">
<g>
	<path fill="#595959" d="M91.225,51.465c0.195-2.105,0.254-4.277-0.239-6.312c-0.454-2.108-1.394-4.152-1.58-6.315
		c-0.131-1.507,0.1-3.011,0.248-4.521c1.571-3.111,5.146-7.239,5.338-10.665c0.198-3.527-2.706-6.419-5.612-8.425
		c-1.685-1.225-3.504-2.251-5.059-3.642c-1.611-1.44-2.492-3.055-3.338-5.008c-0.215-0.501-0.536-1.079-1.081-1.108
		c-0.364-0.017-0.693,0.239-0.875,0.554c-0.175,0.318-0.229,0.688-0.279,1.046c-0.248,1.714,0.038,5.041-1.727,5.897
		c-1.405,0.688-3.253,0.233-4.53-0.524c-0.42-0.248-5.414-3.653-5.493-3.266c-0.3,1.493-0.111,3.035,0.14,4.537
		c0.42,2.542,0.921,5.157,1.758,7.598c0.286,0.852,0.568,1.645,0.825,2.44c0.845,4.706-0.35,9.685-1.948,14.306
		c-2.029,4.032-4.956,7.951-7.475,11.221c-0.431,0.565-0.91,1.14-1.562,1.42c-0.979,0.417-2.093,0.084-3.128-0.166
		c-4.487-1.093-9.437-0.481-13.334,1.991c-4.617,2.933-7.351,8.061-9.275,13.178c-1.929,5.116-3.284,10.51-6.101,15.195
		c-0.975,1.621-2.641,3.341-4.453,2.793c-2.057-0.622-5.209-5.225-6.657-6.849c-4.44-4.997-5.805-11.936-6.962-18.518
		c-0.866-4.921-1.809-9.974-1.601-14.994c0.06-1.44,1.094-3.956,0.233-5.236c-0.997-1.484-2.278-1.099-3.162,0.323
		c-1.529,2.449-0.519,5.764-0.208,8.396c0.292,2.481,0.05,4.994-0.025,7.493c-0.257,8.933,1.64,19.095,6.353,27.203
		c3.359,5.778,8.147,10.51,14.604,13.014c2.23,0.86,26.556,7.942,26.973,6.205c0.417-1.727-0.615-3.68-2.272-4.312
		c6.401-0.314,12.794-0.629,19.196-0.941c3.6-0.181,7.428-0.306,10.559,1.48c1.731,0.988,3.146,2.522,4.988,3.291
		c1.84,0.771,4.458,0.38,5.125-1.501c0.426-1.195-0.084-2.49-0.519-3.682C84.064,81.228,89.887,66.118,91.225,51.465"/>
</g>
</svg>
