<?xml version="1.0" encoding="utf-8"?>
<!-- Generator: Adobe Illustrator 16.0.0, SVG Export Plug-In . SVG Version: 6.00 Build 0)  -->
<!DOCTYPE svg PUBLIC "-//W3C//DTD SVG 1.1//EN" "http://www.w3.org/Graphics/SVG/1.1/DTD/svg11.dtd">
<svg version="1.1" id="Calque_1" xmlns="http://www.w3.org/2000/svg" xmlns:xlink="http://www.w3.org/1999/xlink" x="0px" y="0px"
	 width="100px" height="84px" viewBox="0 0 100 84" enable-background="new 0 0 100 84" xml:space="preserve">
<g>
	<path fill="#547082" d="M5.297,9.396c0,0-2.173,2.172-2.607,6.517c-0.437,4.348-1.305,49.55,0,61.719c0,0,0,2.173,2.607,2.173
		c2.606,0,20.992-14.777,45.048-4.349V14.901C50.345,14.901,33.112,0.485,5.297,9.396"/>
	<path fill="#547082" d="M94.395,75.242c0,0,2.393,0.433,2.607-1.305c0.219-1.739,0.871-47.159,0-55.852c0,0,0.219-3.473-2.172-4.78
		c0,0-21.885-8.185-44.486,1.594V75.46C50.344,75.46,71.793,61.116,94.395,75.242"/>
	<path fill="#DEE3E0" d="M7.668,10.252c0,0-2.03,2.03-2.439,6.094c-0.404,4.067-1.218,46.334,0,57.718c0,0,0,2.032,2.439,2.032
		c2.439,0,19.63-13.817,42.129-4.064V15.4C49.797,15.4,33.683,1.918,7.668,10.252"/>
	<path fill="#E8F0ED" d="M90.99,71.828c0,0,2.236,0.404,2.439-1.221c0.201-1.622,0.812-44.099,0-52.227c0,0,0.201-3.256-2.033-4.474
		c0,0-20.463-7.652-41.601,1.494v56.632C49.795,72.032,69.856,58.62,90.99,71.828"/>
	<path fill="#CCD1CF" d="M55.901,20.954c0,0-0.135,7.179,0,10.971c0,0,4.7-1.401,8.538-1.771c4.741-0.456,8.942,0.284,11.92,1.098
		c0,0,0.135-5.285,0-8.13c-0.135-2.846-0.731-4.664-0.731-4.664S59.286,17.702,55.901,20.954"/>
	<path fill="#CCD1CF" d="M86.385,41.008c-0.139,0-0.279-0.02-0.42-0.058c-2.168-0.579-8.619-2.037-14.401-2.946
		c-2.275-0.355-5.611-0.132-9.652,0.646c-3.136,0.604-5.583,1.333-5.606,1.341c-0.86,0.255-1.766-0.235-2.021-1.095
		c-0.258-0.86,0.229-1.766,1.089-2.021c0.421-0.126,10.372-3.075,16.7-2.081c5.895,0.923,12.5,2.422,14.731,3.012
		c0.865,0.233,1.383,1.126,1.15,1.995C87.762,40.529,87.104,41.008,86.385,41.008"/>
	<path fill="#CCD1CF" d="M85.57,48.457c-0.221,0-0.441-0.045-0.66-0.141c-0.125-0.055-0.254-0.117-0.396-0.183
		c-1.145-0.548-3.271-1.56-11.834-2.393c-9.232-0.897-16.208,1.616-16.276,1.645c-0.839,0.307-1.777-0.124-2.086-0.963
		c-0.309-0.843,0.121-1.78,0.958-2.087c0.312-0.117,7.709-2.803,17.717-1.831c9.13,0.886,11.501,2.015,12.921,2.691
		c0.113,0.055,0.219,0.106,0.32,0.149c0.82,0.364,1.189,1.327,0.822,2.149C86.789,48.095,86.193,48.457,85.57,48.457"/>
	<path fill="#CCD1CF" d="M56.44,58.488c-0.513,0-1.017-0.244-1.333-0.697c-0.516-0.736-0.333-1.751,0.401-2.267
		c0.427-0.295,10.601-7.171,30.601-0.204c0.846,0.295,1.291,1.224,0.998,2.072c-0.297,0.848-1.223,1.295-2.07,1
		c-9.587-3.339-16.609-3.21-20.81-2.511c-4.528,0.748-6.838,2.295-6.861,2.313C57.085,58.393,56.758,58.488,56.44,58.488"/>
</g>
</svg>
