<?xml version="1.0" encoding="utf-8"?>
<!-- Generator: Adobe Illustrator 16.0.0, SVG Export Plug-In . SVG Version: 6.00 Build 0)  -->
<!DOCTYPE svg PUBLIC "-//W3C//DTD SVG 1.1//EN" "http://www.w3.org/Graphics/SVG/1.1/DTD/svg11.dtd">
<svg version="1.1" id="Calque_1" xmlns="http://www.w3.org/2000/svg" xmlns:xlink="http://www.w3.org/1999/xlink" x="0px" y="0px"
	 width="100.5px" height="97.022px" viewBox="-50.5 -48.753 100.5 97.022" enable-background="new -50.5 -48.753 100.5 97.022"
	 xml:space="preserve">
<g>
	<path fill="#999999" d="M-22.282-28.001c2.16,1.967,4.319,3.933,6.49,5.883c-1.403,1.713-2.812,3.418-4.229,5.112
		c-2.081-2.191-4.133-4.405-6.153-6.65C-24.94-25.171-23.623-26.599-22.282-28.001 M-9.458-27.769
		c2.026,2.283,4.08,4.546,6.149,6.799c-1.551,1.535-2.974,3.224-4.329,4.98c-2.162-2.011-4.321-4.028-6.475-6.047
		C-12.547-23.938-10.995-25.85-9.458-27.769 M-1.544-9.388c-1.529,2.042-3.104,4.044-4.719,6.009
		c-1.813-1.688-3.604-3.405-5.378-5.137c1.544-1.924,3.086-3.839,4.642-5.738C-5.18-12.631-3.363-11.015-1.544-9.388 M3.772-4.656
		C1.91-2.87,0.101-1.035-1.483,1.002c-1.327-1.191-2.653-2.394-3.963-3.61c1.68-1.931,3.297-3.91,4.852-5.944
		C0.858-7.252,2.315-5.958,3.772-4.656 M-2.666,2.614C-3.862,4.387-4.871,6.26-6.04,8.026C-7.71,6.473-9.356,4.9-10.993,3.324
		c1.695-1.692,3.338-3.43,4.928-5.222c1.345,1.203,2.703,2.39,4.072,3.566C-2.224,1.984-2.451,2.292-2.666,2.614 M-16.749-2.333
		c1.165-1.323,2.296-2.683,3.398-4.069c0.341-0.432,0.693-0.853,1.036-1.281C-10.519-5.979-8.708-4.3-6.87-2.635
		c-1.525,1.83-3.093,3.631-4.695,5.401C-13.307,1.082-15.038-0.616-16.749-2.333 M-22.809,2.715
		c-2.322-2.31-4.614-4.661-6.937-6.969c1.545-1.627,3.064-3.285,4.57-4.946c2.316,2.359,4.674,4.678,7.065,6.961
		C-19.592-0.501-21.146,1.156-22.809,2.715 M-19.136-16.061c1.465-1.711,2.912-3.428,4.347-5.156c2.2,1.973,4.403,3.95,6.617,5.917
		c-1.494,1.961-2.915,3.973-4.346,5.925C-14.75-11.575-16.96-13.799-19.136-16.061 M-13.162-8.493
		c-0.088,0.117-0.174,0.235-0.263,0.352c-1.302,1.73-2.633,3.447-4.021,5.107c-2.32-2.342-4.617-4.711-6.89-7.099
		c1.487-1.66,2.966-3.323,4.42-5.009C-17.705-12.887-15.445-10.678-13.162-8.493 M-30.941-17.233
		c1.13-1.476,2.205-3.003,3.301-4.518c0.213-0.296,0.443-0.581,0.671-0.874c2.025,2.218,4.076,4.405,6.169,6.56
		c-1.431,1.708-2.868,3.413-4.309,5.115C-27.07-13.027-29.013-15.128-30.941-17.233 M-27.211-36.564
		c-2.04,1.748-3.72,3.811-5.259,5.994c-0.544-0.086-1.129,0.475-0.693,0.985c0.002,0.004,0.007,0.004,0.009,0.006
		c-2.646,3.898-4.954,8.085-8.117,11.552c-0.241,0.256,0.172,0.612,0.409,0.357c3.161-3.424,5.769-7.252,8.547-10.944
		c1.494,1.725,3.011,3.434,4.544,5.124c-1.304,1.824-2.536,3.711-3.833,5.537c-1.408-1.541-2.808-3.094-4.201-4.656
		c-0.492-0.545-1.469,0.302-0.979,0.868c1.437,1.656,2.897,3.287,4.375,4.9c-1.653,2.229-3.467,4.325-5.727,6.042
		c-0.272,0.208,0.016,0.646,0.301,0.449c2.365-1.615,4.29-3.642,6.047-5.822c1.923,2.09,3.869,4.165,5.858,6.197
		c-1.461,1.723-2.914,3.447-4.372,5.17c-1.726-1.708-3.472-3.39-5.275-5.003c-0.464-0.415-1.259,0.245-0.836,0.746
		c1.59,1.885,3.311,3.692,5.102,5.447c-0.736,0.87-1.478,1.744-2.221,2.618c-0.184,0.224,0.14,0.497,0.341,0.292
		c0.794-0.805,1.581-1.622,2.363-2.443c2.339,2.262,4.798,4.428,7.279,6.533c-1.047,0.938-2.128,1.845-3.27,2.682
		c-0.26,0.193,0.012,0.604,0.28,0.417c1.231-0.816,2.398-1.708,3.52-2.641c1.6,1.35,3.2,2.677,4.775,3.994
		c0.257,0.212,0.577-0.161,0.337-0.384c-1.492-1.38-2.953-2.793-4.396-4.229c1.723-1.497,3.344-3.113,4.878-4.809
		c1.756,1.671,3.536,3.312,5.328,4.937c-1.821,1.994-3.69,3.946-5.61,5.862c-0.1,0.102,0.059,0.281,0.165,0.186
		c2.07-1.771,4.066-3.621,6.007-5.535c1.715,1.553,3.441,3.088,5.186,4.61c-0.684,0.992-1.423,1.952-2.298,2.818
		c-0.108,0.109,0.059,0.294,0.178,0.205c0.996-0.774,1.829-1.66,2.582-2.618c0.086,0.081,0.17,0.155,0.259,0.229
		c0.247,0.21,0.572-0.161,0.333-0.378c-0.097-0.092-0.188-0.176-0.284-0.262c1.114-1.489,2.069-3.103,3.124-4.661
		c0.356-0.534,0.736-1.044,1.128-1.545c1.921,1.652,3.86,3.289,5.83,4.889c0.329,0.271,0.767-0.224,0.44-0.502
		c-1.94-1.654-3.854-3.338-5.761-5.032c1.627-2,3.462-3.818,5.35-5.585C4.797-3.74,5.057-3.51,5.313-3.276
		c0.3,0.268,0.713-0.205,0.413-0.474C5.485-3.968,5.245-4.186,5.003-4.406c0.321-0.292,0.639-0.591,0.96-0.885
		C6.464-5.75,5.661-6.453,5.168-5.983C4.854-5.696,4.547-5.396,4.229-5.103C2.757-6.43,1.287-7.767-0.18-9.105
		c1.016-1.348,2.017-2.709,2.969-4.1c0.459-0.667-0.493-1.516-0.963-0.837c-0.962,1.38-1.953,2.734-2.949,4.078
		c-1.788-1.636-3.568-3.287-5.343-4.938c1.371-1.663,2.754-3.323,4.141-4.986c0.392,0.432,0.782,0.87,1.181,1.296
		c0.263,0.281,0.652-0.176,0.392-0.455c-0.397-0.43-0.785-0.877-1.181-1.312c0.301-0.361,0.598-0.725,0.901-1.082
		c0.429-0.517-0.271-1.401-0.816-0.922c-0.348,0.31-0.686,0.641-1.018,0.966c-2.076-2.306-4.09-4.654-6.055-7.049
		c0.481-0.603,0.966-1.208,1.45-1.809c0.552-0.696-0.493-1.612-1.043-0.907c-0.429,0.545-0.872,1.081-1.302,1.622
		c-1.488-1.839-2.957-3.698-4.39-5.588c-0.509-0.677-1.609,0.105-1.075,0.734c1.613,1.87,3.254,3.721,4.889,5.573
		c-1.563,1.962-3.125,3.925-4.709,5.864c-2.109-1.983-4.222-3.96-6.326-5.94c1.97-2.037,3.961-4.054,5.793-6.243
		c0.433-0.51-0.272-1.396-0.812-0.916c-2.115,1.876-4.176,3.929-6.116,6.09c-1.235-1.161-2.467-2.323-3.705-3.48
		c-0.625-0.585-1.505,0.421-0.875,1.008c1.239,1.149,2.494,2.283,3.741,3.424c-1.267,1.457-2.467,2.948-3.594,4.466
		c-1.518-1.698-3.022-3.411-4.498-5.138c1.592-2.068,3.252-4.08,5.126-5.929C-25.852-36.115-26.653-37.042-27.211-36.564"/>
	<path fill="#F2F2F2" d="M11.202,4.776c1.506,2.501,3.422,4.833,5.028,7.116c2.281,3.229,5.216,6.527,7.942,9.921
		c-5.289-4.489-11.112-8.771-17.372-9.69C8.919,10.089,10.332,7.567,11.202,4.776 M-27.795,7.292
		c-8.143-5.95-14.648-15.684-14.719-26.02c-0.083-11.436,8.276-20.387,19.688-20.894c7.062-0.312,13.714,2.721,19.054,7.521
		c4.223,4.703,8.257,10.309,10.293,15.865c1.271,3.47,1.258,7.403,1.816,11.116c-0.3,6.315-2.91,12.253-8.604,16.548
		c-2.35,0.763-4.748,1.344-7.154,1.717c-0.286,0-0.578,0.006-0.857,0.006c-2.417-0.012-4.811-0.081-7.16-0.315
		C-20.165,11.666-24.63,9.609-27.795,7.292 M33.725,30.299c-2.282-5.21-6.811-9.667-10.15-14.237
		C20.035,11.217,13.087,4.239,12.315-1.893c0-0.019-0.012-0.034-0.012-0.048c0.134-3.162-0.182-6.43-0.776-9.554
		c-0.029-0.144-0.06-0.289-0.088-0.432c-0.122-0.61-0.249-1.205-0.386-1.792C7.908-26.982-0.4-41.05-14.662-44.149
		c-12.128-2.64-26.472,1.857-30.91,14.424c-5.153,14.586,2.114,29.664,13.297,38.963c4.699,3.91,10.015,6.262,15.485,7.137
		c5.033,1.302,10.299,1.455,15.398,0.096c0.214-0.015,0.437-0.084,0.659-0.188c0.328-0.095,0.657-0.17,0.977-0.277
		c0.945-0.321,1.814-0.692,2.625-1.104c4.268,0.411,11.598,4.268,16,6.847c4.348,3.521,8.378,7.503,12.043,10.372
		C32.14,33.082,34.485,32.025,33.725,30.299"/>
	<path fill="#66617D" d="M34.283,27.51c-0.646-0.692-1.346-1.428-2.268-1.627c-0.826-0.176-1.698,0.128-2.383,0.625
		c-0.684,0.495-1.216,1.166-1.737,1.834c-0.174,0.218-0.351,0.449-0.396,0.73c-0.068,0.399,0.161,0.795,0.391,1.136
		c2.306,3.418,5.52,6.106,8.3,9.15c1.14,1.25,2.228,2.571,3.631,3.514c1.403,0.944,3.208,1.463,4.799,0.886
		c1.419-0.511,2.759-2.379,2.196-3.93c-0.521-1.418-2.615-2.613-3.688-3.585C40.054,33.463,37.102,30.549,34.283,27.51"/>
	<path fill="#B3D430" d="M23.748-32.513c-1.068,0.109-2.156,0.333-3.057,0.923c-1.363,0.889-2.114,2.486-2.445,4.079
		c-0.447,2.143-0.239,4.443,0.738,6.403c0.302,0.597,0.675,1.167,1.149,1.643c0.47,0.464,1.03,0.826,1.612,1.135
		c0.799,0.432,1.658,0.765,2.548,0.945c1.054,0.212,2.151,0.212,3.214,0.051c1.012-0.155,2.034-0.462,2.814-1.124
		c0.568-0.485,0.974-1.132,1.321-1.788c0.687-1.312,1.168-2.736,1.417-4.195c0.116-0.671,0.18-1.361,0.036-2.027
		c-0.132-0.619-0.449-1.191-0.79-1.73C30.497-31.047,27.136-32.845,23.748-32.513"/>
	<path fill="#F2F2F2" d="M25.421-29.955c0.044-0.765,0.037-2.143-0.774-2.506c-0.118-0.052-0.192,0.109-0.088,0.172
		c0.772,0.48,0.582,2.247,0.433,2.969c-0.197,0.939-0.646,1.841-1.327,2.526c-1.457,1.468-3.694,1.786-5.567,1.025
		c-0.241-0.096-0.425,0.258-0.188,0.359c2.107,0.9,4.7,0.422,6.222-1.34C24.896-27.641,25.347-28.788,25.421-29.955"/>
	<path fill="#F2F2F2" d="M32.851-24.489c-0.98,0.037-1.401-1.879-2.07-2.485c-0.547-0.495-1.258-0.797-1.986-0.897
		c-1.531-0.205-3.012,0.583-3.924,1.795c-0.99,1.306-1.246,3.002-0.556,4.501c0.845,1.856,2.769,2.586,4.074,4.038
		c0.058,0.065,0.162-0.03,0.116-0.101c-0.929-1.346-2.558-1.952-3.483-3.306c-1.193-1.738-0.948-3.969,0.555-5.447
		c1.399-1.373,3.709-1.648,5.108-0.109c0.734,0.809,0.796,2.479,2.191,2.418C33.14-24.091,33.113-24.496,32.851-24.489"/>
</g>
</svg>
