<?xml version="1.0" encoding="utf-8"?>
<!-- Generator: Adobe Illustrator 16.0.0, SVG Export Plug-In . SVG Version: 6.00 Build 0)  -->
<!DOCTYPE svg PUBLIC "-//W3C//DTD SVG 1.1//EN" "http://www.w3.org/Graphics/SVG/1.1/DTD/svg11.dtd">
<svg version="1.1" id="Calque_1" xmlns="http://www.w3.org/2000/svg" xmlns:xlink="http://www.w3.org/1999/xlink" x="0px" y="0px"
	 width="100px" height="100px" viewBox="0 0 100 100" enable-background="new 0 0 100 100" xml:space="preserve">
<g>
	<defs>
		<rect id="SVGID_1_" x="12.43" y="6.65" width="76.019" height="87.895"/>
	</defs>
	<clipPath id="SVGID_2_">
		<use xlink:href="#SVGID_1_"  overflow="visible"/>
	</clipPath>
	<path clip-path="url(#SVGID_2_)" fill="#6E6E70" d="M43.931,10.902c-15.025,0-27.248,12.223-27.248,27.245
		c0,15.024,12.223,27.247,27.248,27.247c15.022,0,27.241-12.223,27.241-27.247C71.172,23.125,58.953,10.902,43.931,10.902
		 M43.931,67.495c-16.185,0-29.347-13.167-29.347-29.348c0-16.18,13.162-29.345,29.347-29.345c16.177,0,29.346,13.165,29.346,29.345
		C73.276,54.328,60.107,67.495,43.931,67.495"/>
	<path clip-path="url(#SVGID_2_)" fill="#E30812" d="M43.931,13.053c-13.84,0-25.1,11.259-25.1,25.096
		c0,13.837,11.26,25.095,25.1,25.095c13.837,0,25.095-11.258,25.095-25.095C69.025,24.312,57.768,13.053,43.931,13.053
		 M43.931,69.646c-17.37,0-31.5-14.132-31.5-31.497c0-17.367,14.13-31.5,31.5-31.5c17.366,0,31.496,14.132,31.496,31.5
		C75.427,55.515,61.297,69.646,43.931,69.646"/>
	<path clip-path="url(#SVGID_2_)" fill="#262626" d="M44.646,55.03c-0.58,0-1.048-0.471-1.048-1.048v-33.1
		c0-0.58,0.468-1.049,1.048-1.049c0.581,0,1.052,0.47,1.052,1.049v33.1C45.697,54.56,45.227,55.03,44.646,55.03"/>
	<path clip-path="url(#SVGID_2_)" fill="#262626" d="M61.197,38.481H28.097c-0.58,0-1.049-0.47-1.049-1.05
		c0-0.577,0.47-1.051,1.049-1.051h33.101c0.578,0,1.047,0.474,1.047,1.051C62.244,38.011,61.775,38.481,61.197,38.481"/>
	<path clip-path="url(#SVGID_2_)" fill="#6E6E70" d="M82.321,89.002c-0.297,0-0.593-0.125-0.801-0.369L61.113,64.644
		c-0.375-0.443-0.324-1.104,0.118-1.48c0.44-0.373,1.107-0.322,1.48,0.12L83.12,87.272c0.376,0.441,0.322,1.104-0.119,1.478
		C82.802,88.919,82.561,89.002,82.321,89.002"/>
	<path clip-path="url(#SVGID_2_)" fill="#E30812" d="M85.035,84.357c0.647,0.3,0,0.13-0.539-0.501
		c-0.728-0.856-1.458-1.716-2.189-2.573c-2.395-2.816-4.791-5.631-7.188-8.448c-2.28-2.681-4.561-5.36-6.842-8.038
		c-0.775-0.914-1.55-1.827-2.327-2.741c-1.265-1.483-0.575-1.72,0.105,0.393c-0.185,1.383-0.366,2.763-0.546,4.146
		c0.123-0.241,0.242-0.476,0.365-0.715c-1.07,0.823-2.143,1.648-3.215,2.47c0.256-0.082,0.512-0.163,0.768-0.246
		c-1.382-0.181-2.764-0.362-4.146-0.541c-0.823-0.422-0.041-0.085,0.454,0.497c0.729,0.855,1.461,1.716,2.19,2.574
		c2.396,2.816,4.79,5.632,7.186,8.447c2.28,2.68,4.559,5.36,6.842,8.039c0.774,0.913,1.555,1.824,2.327,2.738
		c1.265,1.483,0.584,1.726-0.102-0.392c0.183-1.382,0.36-2.761,0.545-4.145c-0.123,0.237-0.243,0.476-0.369,0.715
		c1.075-0.822,2.142-1.646,3.215-2.471c-0.227,0.083-0.454,0.167-0.682,0.25c-6.453,2.373-3.664,12.773,2.863,10.372
		c6.019-2.214,5.708-7.736,2.137-11.936c-2.441-2.869-4.883-5.737-7.326-8.609c-2.895-3.401-5.79-6.805-8.686-10.207
		c-1.836-2.161-3.542-4.906-6.449-5.706c-4.191-1.152-9.165,3.172-7.745,7.578c0.492,1.541,1.249,2.697,2.266,3.892
		c2.272,2.669,4.543,5.337,6.812,8.007c2.953,3.469,5.905,6.941,8.857,10.41c1.751,2.057,3.466,4.863,5.99,6.029
		C85.859,96.535,91.324,87.267,85.035,84.357"/>
</g>
</svg>
