<?xml version="1.0" encoding="utf-8"?>
<!-- Generator: Adobe Illustrator 16.0.0, SVG Export Plug-In . SVG Version: 6.00 Build 0)  -->
<!DOCTYPE svg PUBLIC "-//W3C//DTD SVG 1.1//EN" "http://www.w3.org/Graphics/SVG/1.1/DTD/svg11.dtd">
<svg version="1.1" id="Calque_1" xmlns="http://www.w3.org/2000/svg" xmlns:xlink="http://www.w3.org/1999/xlink" x="0px" y="0px"
	 width="100px" height="100px" viewBox="0 0 100 100" enable-background="new 0 0 100 100" xml:space="preserve">
<g>
	<defs>
		<rect id="SVGID_1_" x="5.348" y="4.718" width="92.108" height="92.106"/>
	</defs>
	<clipPath id="SVGID_2_">
		<use xlink:href="#SVGID_1_"  overflow="visible"/>
	</clipPath>
	<path clip-path="url(#SVGID_2_)" fill="#FFFFFF" d="M97.456,50.771c0,25.437-20.618,46.053-46.054,46.053
		c-25.435,0-46.054-20.616-46.054-46.053c0-25.435,20.619-46.054,46.054-46.054C76.838,4.718,97.456,25.337,97.456,50.771"/>
	<path clip-path="url(#SVGID_2_)" fill="#333333" d="M51.336,15.21c-19.804,0-35.916,16.115-35.916,35.916
		c0,19.81,16.112,35.92,35.916,35.92c19.806,0,35.92-16.11,35.92-35.92C87.256,31.325,71.142,15.21,51.336,15.21 M51.336,89.506
		c-21.162,0-38.38-17.216-38.38-38.38c0-21.16,17.218-38.378,38.38-38.378c21.166,0,38.385,17.218,38.385,38.378
		C89.721,72.29,72.502,89.506,51.336,89.506"/>
</g>
<g>
	<defs>
		<rect id="SVGID_3_" x="28.816" y="33.566" width="45.173" height="36.899"/>
	</defs>
	<clipPath id="SVGID_4_">
		<use xlink:href="#SVGID_3_"  overflow="visible"/>
	</clipPath>
	<path clip-path="url(#SVGID_4_)" fill="#333333" d="M53.902,66.586h0.038c0.003,0.038,0.006,0.072,0.007,0.109
		c-0.018,0-0.036,0-0.053,0C53.898,66.658,53.898,66.622,53.902,66.586 M53.902,66.05c0.014,0,0.024,0,0.038,0
		c0.003,0.035,0.006,0.072,0.007,0.107c-0.018,0-0.036,0-0.053,0C53.898,66.121,53.898,66.085,53.902,66.05 M28.816,66.372
		c0.067,0.045,0.134,0.089,0.205,0.136c1.032,0.636,2.102,1.203,3.212,1.695c2.978,1.32,6.099,2.075,9.355,2.225
		c1.444,0.067,2.893,0.05,4.336-0.107c1.208-0.131,2.4-0.315,3.579-0.599c5.056-1.211,9.341-3.731,12.841-7.568
		c3.058-3.352,5.118-7.257,6.272-11.641c0.405-1.55,0.669-3.125,0.784-4.721c0.063-0.924,0.107-1.848,0.051-2.77
		c-0.014-0.205,0.039-0.331,0.206-0.454c1.645-1.211,3.045-2.661,4.215-4.332c0.045-0.063,0.107-0.119,0.117-0.226
		c-1.669,0.71-3.383,1.182-5.17,1.366c0.052-0.069,0.118-0.115,0.185-0.16c1.75-1.145,2.999-2.69,3.725-4.652
		c0.025-0.073,0.045-0.149,0.086-0.268c-0.128,0.065-0.197,0.103-0.269,0.142c-1.697,0.953-3.496,1.634-5.396,2.039
		c-0.169,0.034-0.262-0.018-0.374-0.125c-2.475-2.398-5.414-3.278-8.771-2.524c-4.79,1.078-7.942,5.812-7.017,10.766
		c0.023,0.129,0.041,0.261,0.069,0.427c-1.865-0.083-3.669-0.364-5.445-0.839c-5.534-1.486-10.107-4.475-13.795-8.882
		c-0.783,1.376-1.21,2.824-1.228,4.374c-0.047,3.377,1.374,6.025,4.079,8.026c-0.729,0-1.432-0.116-2.123-0.302
		c-0.702-0.187-1.363-0.468-2.042-0.816c0.004,1.597,0.346,3.062,1.086,4.426c1.383,2.543,3.514,4.107,6.325,4.788
		c-0.062,0.04-0.121,0.066-0.185,0.08c-1.216,0.295-2.437,0.355-3.673,0.151c-0.076-0.012-0.156-0.012-0.259-0.019
		c0.254,0.771,0.584,1.455,0.996,2.103c0.409,0.644,0.895,1.225,1.444,1.747c0.56,0.531,1.174,0.983,1.844,1.359
		c0.66,0.373,1.363,0.658,2.095,0.864c0.732,0.205,1.486,0.297,2.254,0.366c-1.197,0.977-2.503,1.762-3.905,2.381
		C35.432,66.198,32.196,66.689,28.816,66.372"/>
</g>
</svg>
