<?xml version="1.0" encoding="utf-8"?>
<!-- Generator: Adobe Illustrator 16.0.0, SVG Export Plug-In . SVG Version: 6.00 Build 0)  -->
<!DOCTYPE svg PUBLIC "-//W3C//DTD SVG 1.1//EN" "http://www.w3.org/Graphics/SVG/1.1/DTD/svg11.dtd">
<svg version="1.1" id="Calque_1" xmlns="http://www.w3.org/2000/svg" xmlns:xlink="http://www.w3.org/1999/xlink" x="0px" y="0px"
	 width="526.315px" height="461.052px" viewBox="0 0 526.315 461.052" enable-background="new 0 0 526.315 461.052"
	 xml:space="preserve">
<g>
	<defs>
		<polygon id="SVGID_1_" points="53.333,16.465 -23.275,168.188 -20.431,182.166 4.721,305.796 144.059,440.144 312.304,451.013 
			337.627,445.86 348.058,443.737 430.619,426.937 531.964,313.172 542.521,237.37 536.302,206.792 488.566,99.88 444.59,4.932 
			342.313,-42.329 		"/>
	</defs>
	<clipPath id="SVGID_2_">
		<use xlink:href="#SVGID_1_"  overflow="visible"/>
	</clipPath>
	<path clip-path="url(#SVGID_2_)" fill="#FFFFFF" d="M274.137,141.175c-49.655-2.769-94.11,31.522-99.295,76.593
		c-5.188,45.069,30.862,83.847,80.518,86.616c49.653,2.771,94.112-31.523,99.296-76.594
		C359.844,182.722,323.79,143.943,274.137,141.175 M448.197,233.014c-51.121,35.706-120.487,79.634-184.205,81.632
		c-47.998,1.502-91.5-29.125-126.297-54.928c-7.116-5.276-46.595-37.266-58.024-45.561c3.943-1.855,10.471-7.842,13.643-9.55
		c16.81-9.059,32.403-20.259,49.206-29.453c38.562-21.102,87.226-47.442,132.96-44.712
		C341.355,134.375,404.706,190.887,448.197,233.014"/>
	<path clip-path="url(#SVGID_2_)" fill="#FFFFFF" d="M17.205,444.096c12.269,6.237,24.522,12.488,36.807,18.695
		c7.918-25.422,15.43-50.943,22.343-76.606c-12.38-5.327-24.818-10.552-37.327-15.664C32.107,395.12,24.765,419.63,17.205,444.096"
		/>
	<path clip-path="url(#SVGID_2_)" fill="#FFFFFF" d="M672.553,410.629c-20.23-2.317-40.463-4.632-60.694-6.951
		c0.011-0.087,0.018-0.171,0.027-0.254c0,0-2.09-51.415-3.862-64.815c-0.29-2.191-6.846-3.307-8.168-1.865
		c-22.301,24.347-53.663,59.413-53.663,59.413c-21.234-2.433-42.469-4.867-63.701-7.297c-3.039-0.349-5.033,3.342-3.118,5.309
		c13.148,13.504,26.295,27.012,39.44,40.512c-8.146,12.081-26.029,40.785-26.313,41.258c-2.192,3.642,1.763,5.77,5.701,3.569
		c1.72-0.961,31.316-13.411,46.032-18.586l46.046,41.965c1.857,1.142,4.54,0.351,5.389-1.612
		c8.506-19.618,11.255-41.277,13.111-62.73c21.597-7.352,43.187-14.716,64.859-21.862
		C677.259,415.491,675.66,410.99,672.553,410.629"/>
	<path clip-path="url(#SVGID_2_)" fill="#3D3D3D" d="M448.197,233.014c-43.492-42.127-106.842-98.639-172.717-102.571
		c-45.735-2.73-94.398,23.61-132.958,44.711c-16.808,9.193-32.398,20.395-49.209,29.45c-3.174,1.709-9.698,7.698-13.643,9.555
		c11.426,8.293,50.911,40.282,58.026,45.559c34.795,25.802,78.297,56.43,126.295,54.928
		C327.71,312.648,397.076,268.72,448.197,233.014 M463.411,238.311c-56.28,39.646-137.272,93.708-210.663,89.702
		c-73.028-3.981-141.106-66.435-187.43-111.64c-2.415-2.358-2.296-6.963,0.768-9.124c56.278-39.647,137.27-93.709,210.658-89.707
		c73.029,3.986,141.11,66.434,187.429,111.644c1.016,0.987,1.431,2.046,1.614,3.106
		C466.406,234.296,465.921,236.536,463.411,238.311"/>
	<path clip-path="url(#SVGID_2_)" fill="#FF757D" d="M269.69,179.829c-7.4-0.413-14.508,0.879-21.062,3.279
		c-3.035-2.907-7.212-4.855-12.063-5.126c-10.454-0.583-19.812,6.637-20.905,16.125c-0.618,5.367,1.607,10.254,5.491,13.642
		c-1.805,3.91-3.218,8.008-3.725,12.392c-2.729,23.721,16.246,44.134,42.379,45.592c26.135,1.455,49.533-16.595,52.262-40.315
		C314.795,201.697,295.822,181.285,269.69,179.829 M354.654,227.791c-5.184,45.07-49.642,79.364-99.299,76.594
		c-49.652-2.77-85.702-41.547-80.516-86.619c5.186-45.068,49.642-79.359,99.297-76.59
		C323.79,143.943,359.84,182.722,354.654,227.791"/>
	<path clip-path="url(#SVGID_2_)" fill="#3D3D3D" d="M269.689,179.828c-7.399-0.413-14.507,0.88-21.062,3.281
		c3.511,3.361,5.475,8.022,4.89,13.109c-1.095,9.488-10.451,16.707-20.904,16.125c-4.542-0.253-8.476-1.993-11.459-4.595
		c-1.805,3.911-3.22,8.008-3.725,12.395c-2.73,23.719,16.245,44.133,42.378,45.588c26.132,1.458,49.532-16.593,52.261-40.312
		C314.795,201.697,295.823,181.286,269.689,179.828"/>
	<path clip-path="url(#SVGID_2_)" fill="#FFFFFF" d="M232.612,212.341c10.453,0.584,19.81-6.636,20.904-16.125
		c0.585-5.087-1.379-9.746-4.889-13.109c-3.033-2.907-7.215-4.854-12.063-5.125c-10.454-0.583-19.812,6.637-20.905,16.125
		c-0.617,5.367,1.607,10.254,5.491,13.643C224.134,210.349,228.07,212.089,232.612,212.341"/>
</g>
<g>
	<defs>
		<polygon id="SVGID_3_" points="131.123,5.119 53.334,20.945 -23.275,172.669 -20.431,186.645 4.721,310.278 144.059,440.144 
			312.304,455.494 337.627,450.34 348.058,448.217 430.619,431.417 531.964,317.655 542.521,241.849 536.302,211.271 
			488.566,104.359 444.59,9.414 342.313,-37.85 		"/>
	</defs>
	<clipPath id="SVGID_4_">
		<use xlink:href="#SVGID_3_"  overflow="visible"/>
	</clipPath>
	<path clip-path="url(#SVGID_4_)" fill="#3D3D3D" d="M284.564,96.424c2.307-20.042,4.613-40.087,6.918-60.131
		c0.956-8.308-13.267-8.879-14.22-0.592c-2.309,20.042-4.614,40.087-6.92,60.131C269.388,104.141,283.612,104.713,284.564,96.424"/>
	<path clip-path="url(#SVGID_4_)" fill="#3D3D3D" d="M183.497,55.396c6.574,16.486,13.252,33.308,22.368,48.721
		c4.237,7.171,17.129,1.12,12.856-6.103c-9.114-15.416-15.789-32.231-22.363-48.721C193.293,41.611,180.447,47.75,183.497,55.396"/>
	<path clip-path="url(#SVGID_4_)" fill="#3D3D3D" d="M103.856,95.485c11.243,13.54,22.761,27.303,36.103,39.192
		c6.372,5.678,17.261-3.091,10.833-8.82c-13.344-11.892-24.857-25.651-36.102-39.192C109.288,80.163,98.475,89.005,103.856,95.485"
		/>
	<path clip-path="url(#SVGID_4_)" fill="#3D3D3D" d="M45.875,144.124c9.898,8.987,20.51,18.453,32.711,24.875
		c7.773,4.094,15.926-6.81,8.118-10.921c-11.231-5.912-20.893-14.505-29.996-22.774C50.392,129.568,39.509,138.342,45.875,144.124"
		/>
	<path clip-path="url(#SVGID_4_)" fill="#3D3D3D" d="M372.737,59.422c-10.248,15.54-20.66,31.458-33.22,45.622
		c-5.873,6.623,5.909,13.458,11.738,6.883c12.562-14.165,22.973-30.083,33.222-45.622C389.257,59.059,377.544,52.138,372.737,59.422
		"/>
	<path clip-path="url(#SVGID_4_)" fill="#3D3D3D" d="M409.424,149.443c15.892-10.261,30.406-22.571,44.604-34.694
		c6.806-5.813-2.455-15.275-9.299-9.429c-14.197,12.122-28.713,24.434-44.605,34.695
		C392.518,144.926,401.867,154.324,409.424,149.443"/>
	<path clip-path="url(#SVGID_4_)" fill="#3D3D3D" d="M500.148,169.191c7.563-4.973-1.774-14.372-9.3-9.43
		c-10.869,7.146-22.446,14.461-34.854,19.075c-8.6,3.198-2.362,14.567,6.206,11.378
		C475.748,185.177,488.285,176.992,500.148,169.191"/>
	<path clip-path="url(#SVGID_4_)" fill="#3D3D3D" d="M244.189,364.537c-2.304,20.043-4.611,40.091-6.918,60.131
		c-0.957,8.308,13.266,8.88,14.22,0.59c2.306-20.041,4.614-40.085,6.919-60.129C259.367,356.82,245.143,356.247,244.189,364.537"/>
	<path clip-path="url(#SVGID_4_)" fill="#3D3D3D" d="M310.033,362.944c9.113,15.416,15.793,32.234,22.364,48.724
		c3.064,7.684,15.907,1.547,12.858-6.105c-6.569-16.483-13.25-33.305-22.367-48.721
		C318.651,349.674,305.761,355.725,310.033,362.944"/>
	<path clip-path="url(#SVGID_4_)" fill="#3D3D3D" d="M377.962,335.104c13.345,11.891,24.859,25.651,36.104,39.19
		c5.399,6.506,16.213-2.339,10.831-8.818c-11.243-13.542-22.761-27.303-36.104-39.193
		C382.422,320.605,371.534,329.376,377.962,335.104"/>
	<path clip-path="url(#SVGID_4_)" fill="#3D3D3D" d="M472.048,325.657c6.313,5.733,17.195-3.04,10.832-8.82
		c-9.898-8.989-20.51-18.454-32.712-24.873c-7.771-4.095-15.925,6.809-8.115,10.921
		C453.284,308.794,462.942,317.387,472.048,325.657"/>
	<path clip-path="url(#SVGID_4_)" fill="#3D3D3D" d="M156.018,401.537c10.246-15.539,20.659-31.457,33.219-45.621
		c5.874-6.623-5.907-13.457-11.74-6.881c-12.561,14.166-22.971,30.084-33.22,45.62C139.496,401.902,151.213,408.822,156.018,401.537
		"/>
	<path clip-path="url(#SVGID_4_)" fill="#3D3D3D" d="M84.025,355.639c14.198-12.123,28.711-24.431,44.605-34.693
		c7.605-4.91-1.743-14.306-9.298-9.429c-15.895,10.261-30.408,22.57-44.606,34.693C67.918,352.023,77.18,361.484,84.025,355.639"/>
	<path clip-path="url(#SVGID_4_)" fill="#3D3D3D" d="M28.605,291.769c-7.566,4.972,1.775,14.374,9.299,9.429
		c10.87-7.145,22.448-14.457,34.852-19.072c8.603-3.201,2.368-14.567-6.203-11.382C53.004,275.785,40.469,283.968,28.605,291.769"/>
</g>
</svg>
